<svg version="1.1" id="Layer_1" xmlns="http://www.w3.org/2000/svg" xmlns:xlink="http://www.w3.org/1999/xlink" x="0px" y="0px"
	 width="100%" viewBox="0 0 466 535" enable-background="new 0 0 466 535" xml:space="preserve">
<path fill="#EDEDED" opacity="1.000000" stroke="none" 
	d="
M1.000001,327.000000 
	C1.000000,218.333313 1.000000,109.666634 1.000000,1.000000 
	C18.770096,1.000000 36.416389,1.000000 54.309528,1.266814 
	C43.554947,6.283289 39.530212,15.314408 39.493866,26.577240 
	C39.438015,43.883774 39.440693,61.193420 39.750641,78.495804 
	C39.814571,82.064743 40.655834,85.966125 42.308182,89.097168 
	C47.900646,99.694351 59.141911,103.280182 67.560684,100.670494 
	C78.840958,97.173798 84.298172,89.227440 84.559021,77.258659 
	C84.796989,66.340057 84.143738,55.404243 84.005714,44.474476 
	C83.907997,36.736111 84.212471,28.989023 83.972702,21.257143 
	C83.742508,13.834143 80.159760,8.171099 73.923134,4.090810 
	C73.002228,3.488311 72.627457,2.051045 72.000000,0.999999 
	C182.020889,1.000000 292.041779,1.000000 402.893860,1.201392 
	C402.801941,2.168247 401.951721,3.481137 400.944489,3.615324 
	C389.647522,5.120327 379.347412,21.111626 385.164490,33.300873 
	C389.650574,42.701107 396.819336,47.609955 406.004028,47.587044 
	C418.060730,47.556969 424.929321,40.981956 427.860260,31.309755 
	C431.474548,19.382429 424.672272,7.195806 412.532684,3.259548 
	C411.547821,2.940200 410.837769,1.773137 410.000000,0.999994 
	C428.978210,1.000000 447.956451,1.000000 467.000000,1.000000 
	C467.000000,109.020889 467.000000,217.041779 466.784821,325.903381 
	C465.896637,326.282562 465.000366,325.968018 464.584991,325.336945 
	C460.202454,318.678589 454.214478,315.900574 446.126038,315.860931 
	C439.123810,315.826660 434.136993,318.761047 428.824615,322.735352 
	C405.985626,339.821686 382.840515,356.498291 359.852509,373.386169 
	C338.954681,388.738525 318.159821,404.231262 297.236359,419.548431 
	C281.545288,431.035248 265.722107,442.341553 249.658447,453.547363 
	C247.170700,452.808868 244.958664,452.329529 242.797958,451.679596 
	C234.199341,449.093140 225.999893,450.410583 217.676208,454.021423 
	C205.638031,445.417542 193.917740,436.921753 182.257782,428.343933 
	C154.294739,407.772552 126.361778,387.160309 98.413307,366.569122 
	C78.285713,351.739929 57.894096,337.252228 38.128494,321.955475 
	C27.871334,314.017395 16.121788,314.300690 9.030022,319.294983 
	C6.031648,321.406494 3.657750,324.404785 1.000001,327.000000 
M391.536255,253.169113 
	C391.372559,253.458847 391.208862,253.748581 391.000000,254.000000 
	C391.000000,254.000000 391.038727,254.044586 390.526245,254.151993 
	C390.366425,254.445724 390.206604,254.739441 389.999756,255.000793 
	C389.999756,255.000793 390.033997,255.046799 389.527924,255.161362 
	C389.369812,255.453079 389.211670,255.744812 389.000671,255.999634 
	C389.000671,255.999634 389.044769,256.046143 388.381805,256.277374 
	C382.590210,263.655396 381.067078,273.916138 387.002014,280.999115 
	C387.002014,280.999115 386.986237,280.996521 386.992706,281.616882 
	C387.345825,282.054047 387.698975,282.491211 388.011566,283.000214 
	C388.011566,283.000214 388.082123,282.957336 388.210022,283.442047 
	C388.493866,283.591705 388.777740,283.741364 389.026031,283.977936 
	C389.026031,283.977936 389.109497,283.934906 389.234436,284.414551 
	C389.425659,284.724243 389.703278,284.880157 390.013275,284.973663 
	C390.013275,284.973663 390.103546,284.917908 390.270721,285.487122 
	C390.861755,285.975586 391.452789,286.464050 392.000671,287.000000 
	C392.000671,287.000000 392.053528,286.963409 392.170288,287.465637 
	C392.459015,287.626740 392.747742,287.787811 392.999817,287.998901 
	C392.999817,287.998901 393.050323,287.963379 393.155731,288.471222 
	C393.448761,288.621643 393.741791,288.772064 394.010529,288.995361 
	C394.010529,288.995361 394.076050,288.955292 394.397003,289.569885 
	C396.591309,290.381195 398.785645,291.192505 400.996460,292.007874 
	C400.996460,292.007874 401.012268,292.013733 401.204346,292.342560 
	C401.487183,292.210022 401.770020,292.077515 402.486176,291.922333 
	C402.486176,291.922333 402.911591,291.837067 403.777100,292.015991 
	C408.663239,291.625488 414.115051,293.936279 418.005737,288.996613 
	C418.005737,288.996613 418.005798,289.053772 418.629089,289.030945 
	C419.074066,288.673950 419.519043,288.316925 420.000000,288.000000 
	C420.000000,288.000000 419.966644,287.957794 420.452362,287.812164 
	C420.608002,287.526367 420.763641,287.240570 420.992401,286.998383 
	C420.992401,286.998383 420.944427,286.928101 421.523254,286.769867 
	C422.011292,286.153259 422.499329,285.536652 423.395813,284.715179 
	C423.650848,284.526123 423.820496,284.278534 424.541168,283.719116 
	C425.340942,282.130402 426.140747,280.541718 426.999329,279.000671 
	C426.999329,279.000671 426.943909,278.951263 427.600647,278.531158 
	C429.191193,272.629852 430.272125,266.746979 426.999329,261.000671 
	C426.999329,261.000671 426.970947,261.028961 426.882629,260.350983 
	C425.904510,258.916504 424.926392,257.482025 424.000000,256.000305 
	C424.000000,256.000305 423.943787,256.041687 423.841187,255.529327 
	C423.548004,255.369629 423.254852,255.209946 422.999573,255.000000 
	C422.999573,255.000000 422.958801,255.049026 422.732147,254.417923 
	C421.145813,253.289505 419.559479,252.161102 418.000000,251.000000 
	C418.000000,251.000000 417.972931,251.031342 417.676971,250.391983 
	C415.455109,249.591309 413.233276,248.790649 411.000671,247.999329 
	C411.000671,247.999329 411.001831,247.986099 410.809570,247.633240 
	C410.518829,247.771851 410.228119,247.910446 409.500519,248.071854 
	C409.500519,248.071854 409.070587,248.152374 408.269318,247.972855 
	C403.454407,247.370483 398.654785,246.834915 394.358673,251.102127 
	C393.926147,251.419525 393.493591,251.736923 392.572021,252.198196 
	C392.410736,252.482849 392.249481,252.767502 392.015289,253.005188 
	C392.015289,253.005188 392.049377,253.084915 391.536255,253.169113 
M303.002838,135.001038 
	C303.002838,135.001038 303.052307,135.056992 302.466766,135.264252 
	C302.307739,135.848129 302.148712,136.432022 302.012299,137.007980 
	C302.012299,137.007980 302.010010,136.984192 301.387909,137.295639 
	C300.265991,139.860077 299.144104,142.424515 298.003479,144.936356 
	C298.003479,144.936356 297.949219,144.949585 297.264954,145.470810 
	C297.273163,153.987900 297.281372,162.504974 297.200745,171.952164 
	C297.230408,180.623962 297.260040,189.295746 297.086487,198.844635 
	C297.154449,201.234344 297.222412,203.624069 297.207214,206.667847 
	C297.234558,207.105667 297.261902,207.543488 297.087708,208.656937 
	C297.366638,209.486725 297.645569,210.316528 298.114960,211.849167 
	C299.769196,214.858810 301.423431,217.868439 303.037231,220.958694 
	C303.037231,220.958694 303.120209,220.923264 303.321564,221.559753 
	C304.908539,222.663162 306.495544,223.766571 308.063995,224.948120 
	C308.063995,224.948120 308.141174,224.925873 308.260651,225.392548 
	C308.260651,225.392548 308.649719,225.679565 308.649719,225.679565 
	C308.649719,225.679565 309.126862,225.600769 309.565979,225.801010 
	C309.565979,225.801010 310.033447,225.921158 310.286957,226.582230 
	C315.817352,228.953384 321.371643,230.352448 327.631256,227.029648 
	C336.471375,223.903625 342.600342,215.399170 342.636353,205.864685 
	C342.704742,187.755066 342.468109,169.641922 342.762024,151.536804 
	C342.862610,145.339340 341.020844,139.874710 337.203644,135.609344 
	C334.445740,132.527679 331.495087,128.303558 325.692810,128.302292 
	C322.105621,128.275375 318.518463,128.248459 314.352295,128.266159 
	C313.970551,128.327606 313.588806,128.389038 312.530273,128.223251 
	C311.034119,129.165390 309.537964,130.107513 308.000000,131.000000 
	C308.000000,131.000000 308.044159,131.048172 307.387177,131.089569 
	C306.600037,131.750809 305.812897,132.412064 304.604095,133.291504 
	C304.346466,133.492706 304.165863,133.748306 303.547211,134.160645 
	C303.386932,134.453903 303.226654,134.747162 303.002838,135.001038 
M310.405090,352.629791 
	C320.441101,357.177155 331.296051,355.493988 337.623413,346.692627 
	C344.357727,337.343872 344.876038,328.409576 339.044525,320.206940 
	C336.752563,318.079315 334.460602,315.951660 331.870209,313.205811 
	C329.099426,312.217804 326.366943,311.100403 323.550446,310.266846 
	C316.069244,308.052643 305.477570,312.858948 301.383423,320.351105 
	C292.603302,331.644836 298.847900,346.815247 308.272705,351.552673 
	C308.834076,351.718323 309.395447,351.883942 310.405090,352.629791 
M411.577881,66.954063 
	C396.199585,63.451550 383.247223,73.669746 383.238525,89.336792 
	C383.228699,106.981842 382.492645,124.668579 383.465759,142.260117 
	C384.416168,159.441269 397.010376,166.950989 412.011444,163.517258 
	C422.009155,161.228806 427.611633,153.196487 427.654449,142.435974 
	C427.725250,124.635803 427.213135,106.825821 427.650269,89.037270 
	C427.934601,77.465370 422.129272,70.950386 411.577881,66.954063 
M216.645233,347.777252 
	C218.917572,349.683563 220.951538,352.024078 223.501801,353.424194 
	C237.688141,361.212738 256.272949,351.663177 256.548859,333.691528 
	C256.807129,316.867310 256.563995,300.035889 256.626648,283.207947 
	C256.664368,273.070892 252.029663,265.915161 243.082199,261.443237 
	C229.324875,254.567352 211.846466,265.632812 211.550491,281.011475 
	C211.265228,295.833130 211.382523,310.662323 211.298828,325.488098 
	C211.255768,333.117401 211.199631,340.737640 216.645233,347.777252 
M168.988907,237.500000 
	C168.988922,230.178497 168.986298,222.856995 168.990662,215.535492 
	C168.991837,213.582092 169.387909,211.543472 168.964859,209.689514 
	C166.677521,199.665436 156.006729,192.150192 145.991821,193.312012 
	C134.407990,194.655869 125.795876,203.442474 125.710770,214.451950 
	C125.570679,232.574173 125.623512,250.698395 125.681137,268.821503 
	C125.730148,284.233032 140.775177,294.572327 154.332840,290.224731 
	C162.084259,287.739075 169.413376,279.166595 169.327347,272.909607 
	C169.169647,261.440338 169.097031,249.969925 168.988907,237.500000 
M397.993408,226.626816 
	C402.134521,228.277252 406.170929,227.920090 410.633514,227.394653 
	C424.317566,225.783493 431.934937,210.180130 427.833710,198.583542 
	C422.488464,183.469376 405.866272,177.919418 392.307892,187.614059 
	C385.755310,192.299347 382.213287,203.329330 384.445526,210.973267 
	C386.509399,218.040588 390.775848,223.069199 397.993408,226.626816 
M331.129211,288.684387 
	C337.473022,285.360870 341.177521,279.560150 342.367462,273.093201 
	C344.960236,259.002350 336.643127,249.084900 323.902649,246.683105 
	C309.498596,243.967697 299.075928,254.460159 297.389130,267.194244 
	C296.248383,275.806091 300.482178,282.592438 307.417450,287.347504 
	C314.627991,292.291321 322.439911,293.107513 331.129211,288.684387 
M303.681396,73.192032 
	C297.664215,80.410095 294.945343,88.370804 299.117310,97.383377 
	C302.914032,105.585335 309.694366,110.658424 318.571381,111.228432 
	C329.111511,111.905228 336.831451,106.683128 341.178650,96.908630 
	C345.075714,88.146111 341.736694,76.539833 333.865570,70.714783 
	C326.170044,65.019722 310.900604,64.750931 303.681396,73.192032 
M255.470734,158.976852 
	C258.163727,150.588501 255.382385,141.332932 248.356720,135.303101 
	C242.380829,130.174255 231.049973,128.964996 224.075012,132.711700 
	C212.906174,138.711212 209.346573,147.499344 212.819885,160.166321 
	C215.385162,169.521729 226.120422,175.178925 233.401321,175.097260 
	C244.442520,174.973404 250.916153,168.927841 255.470734,158.976852 
M236.979065,194.032639 
	C229.346451,192.205826 223.576660,195.834152 218.433411,200.695679 
	C212.675888,206.137833 208.579102,213.048080 213.266769,225.344452 
	C215.802322,231.995544 226.398422,239.489685 233.469650,239.504700 
	C244.049606,239.527161 255.533188,229.252792 256.616028,218.795593 
	C257.787506,207.482346 249.275848,196.576431 236.979065,194.032639 
M211.430176,398.010864 
	C211.544998,398.657806 211.671509,399.302887 211.772919,399.951935 
	C214.458817,417.141022 229.925812,423.310760 244.517410,416.876617 
	C254.674438,412.397827 259.531738,399.838531 255.113083,389.515228 
	C251.135101,380.221527 242.536667,374.009064 230.898636,375.265137 
	C220.685822,376.367401 212.239136,384.643127 211.430176,398.010864 
M145.794525,174.976974 
	C157.308243,175.008698 165.114487,169.846985 168.863419,159.723160 
	C172.130692,150.900070 169.127014,141.564209 160.890915,134.943405 
	C153.889374,129.315033 142.436829,129.056946 134.768372,134.449402 
	C126.184471,140.485596 123.990417,150.584244 126.436440,159.284058 
	C129.078995,168.682922 136.044235,172.943359 145.794525,174.976974 
M74.183372,287.759430 
	C80.827278,283.242279 84.339668,276.719788 83.558945,268.955597 
	C82.051033,253.959579 71.844490,245.746017 55.898872,248.138809 
	C46.509850,249.547729 36.959488,262.984344 38.558968,271.653778 
	C41.774303,289.081421 60.070961,297.607635 74.183372,287.759430 
M51.448765,122.671585 
	C40.056873,130.312180 37.661655,138.449768 40.701130,150.393951 
	C43.407654,161.029755 59.144714,168.883057 71.335922,162.534134 
	C79.134987,158.472534 85.481842,148.250183 84.069717,141.286591 
	C80.668823,124.515747 67.860077,117.006958 51.448765,122.671585 
M169.150330,326.088989 
	C165.679871,314.285400 151.099915,306.713379 139.592941,311.552094 
	C128.401337,316.258179 122.015015,330.071869 126.991623,341.323059 
	C132.208344,353.117096 144.979965,357.841125 156.530487,352.889923 
	C167.203705,348.314758 171.159470,339.863892 169.150330,326.088989 
M150.294449,67.009377 
	C136.662292,67.005486 128.129837,72.466675 125.999680,83.049759 
	C122.116608,102.341606 138.592957,114.193130 153.533279,110.057976 
	C163.715897,107.239655 170.696609,98.036827 169.947998,86.594841 
	C169.367065,77.715622 161.790939,67.701828 150.294449,67.009377 
M41.628567,216.606201 
	C46.058067,225.368484 55.276176,229.944016 65.047173,228.230408 
	C77.215195,226.096436 84.857811,215.422745 83.198578,202.707703 
	C82.161980,194.764114 76.267906,186.123703 63.891838,184.165161 
	C55.998024,182.915939 46.023335,188.185455 41.928051,195.625000 
	C38.205505,202.387405 37.864399,209.041733 41.628567,216.606201 
z"/>
<path fill="#EDEDED" opacity="1.000000" stroke="none" 
	d="
M219.000000,536.000000 
	C146.410934,536.000000 73.821877,536.000000 1.000000,536.000000 
	C1.000000,472.312622 1.000000,408.624969 1.353702,344.493469 
	C3.903635,346.806824 5.638976,350.178436 8.367867,352.225586 
	C33.903290,371.381683 59.610981,390.308075 85.264839,409.306335 
	C111.021637,428.380829 136.787369,447.443268 162.520996,466.548981 
	C172.170944,473.713470 181.741547,480.984802 191.458740,488.497620 
	C191.731354,491.352264 192.254059,493.953522 191.996719,496.475128 
	C190.438782,511.740784 204.939423,529.397278 217.299118,533.247253 
	C218.076462,533.489380 218.442566,535.051819 219.000000,536.000000 
z"/>
<path fill="#EDEDED" opacity="1.000000" stroke="none" 
	d="
M467.000000,345.000000 
	C467.000000,408.598846 467.000000,472.197662 467.000000,536.000000 
	C393.979218,536.000000 320.958282,536.000000 247.126678,535.823486 
	C246.859421,535.152466 247.319580,534.430542 247.958420,534.196838 
	C263.279907,528.590637 272.570190,517.764221 275.788910,501.828674 
	C276.690369,497.365601 276.983093,492.779572 277.853271,488.029907 
	C285.736969,481.966003 293.236176,476.005890 300.924377,470.300446 
	C322.469391,454.311768 344.073334,438.402344 365.689575,422.509979 
	C391.640839,403.430481 417.753937,384.567841 443.527527,365.251770 
	C451.663849,359.153961 461.515625,354.667480 465.959595,344.488892 
	C466.306396,344.659271 466.653198,344.829620 467.000000,345.000000 
z"/>
<path fill="#659CF1" opacity="1.000000" stroke="none" 
	d="
M467.000000,344.531738 
	C466.653198,344.829620 466.306396,344.659271 465.959595,344.488892 
	C461.515625,354.667480 451.663849,359.153961 443.527527,365.251770 
	C417.753937,384.567841 391.640839,403.430481 365.689575,422.509979 
	C344.073334,438.402344 322.469391,454.311768 300.924377,470.300446 
	C293.236176,476.005890 285.736969,481.966003 277.524017,487.890808 
	C276.249908,486.958069 275.253357,486.020844 275.012360,484.918457 
	C273.181854,476.545959 269.471252,469.195862 262.966614,463.568756 
	C258.863434,460.019104 254.309479,456.990479 249.957718,453.728180 
	C265.722107,442.341553 281.545288,431.035248 297.236359,419.548431 
	C318.159821,404.231262 338.954681,388.738525 359.852509,373.386169 
	C382.840515,356.498291 405.985626,339.821686 428.824615,322.735352 
	C434.136993,318.761047 439.123810,315.826660 446.126038,315.860931 
	C454.214478,315.900574 460.202454,318.678589 464.584991,325.336945 
	C465.000366,325.968018 465.896637,326.282562 466.784821,326.372009 
	C467.000000,332.021149 467.000000,338.042297 467.000000,344.531738 
z"/>
<path fill="#AFCBF8" opacity="1.000000" stroke="none" 
	d="
M191.348312,488.207428 
	C181.741547,480.984802 172.170944,473.713470 162.520996,466.548981 
	C136.787369,447.443268 111.021637,428.380829 85.264839,409.306335 
	C59.610981,390.308075 33.903290,371.381683 8.367867,352.225586 
	C5.638976,350.178436 3.903635,346.806824 1.353702,344.024811 
	C1.000000,338.645081 1.000000,333.290131 1.000001,327.467590 
	C3.657750,324.404785 6.031648,321.406494 9.030022,319.294983 
	C16.121788,314.300690 27.871334,314.017395 38.128494,321.955475 
	C57.894096,337.252228 78.285713,351.739929 98.413307,366.569122 
	C126.361778,387.160309 154.294739,407.772552 182.257782,428.343933 
	C193.917740,436.921753 205.638031,445.417542 217.465988,454.287964 
	C207.123169,459.571655 199.223404,467.083954 194.790924,477.910278 
	C193.422653,481.252258 192.483780,484.770081 191.348312,488.207428 
z"/>
<path fill="#4385ED" opacity="1.000000" stroke="none" 
	d="
M191.458710,488.497620 
	C192.483780,484.770081 193.422653,481.252258 194.790924,477.910278 
	C199.223404,467.083954 207.123169,459.571655 217.811310,454.358704 
	C225.999893,450.410583 234.199341,449.093140 242.797958,451.679596 
	C244.958664,452.329529 247.170700,452.808868 249.658447,453.547363 
	C254.309479,456.990479 258.863434,460.019104 262.966614,463.568756 
	C269.471252,469.195862 273.181854,476.545959 275.012360,484.918457 
	C275.253357,486.020844 276.249908,486.958069 277.225800,488.110840 
	C276.983093,492.779572 276.690369,497.365601 275.788910,501.828674 
	C272.570190,517.764221 263.279907,528.590637 247.958420,534.196838 
	C247.319580,534.430542 246.859421,535.152466 246.658020,535.823486 
	C237.979111,536.000000 228.958206,536.000000 219.468658,536.000000 
	C218.442566,535.051819 218.076462,533.489380 217.299118,533.247253 
	C204.939423,529.397278 190.438782,511.740784 191.996719,496.475128 
	C192.254059,493.953522 191.731354,491.352264 191.458710,488.497620 
M220.914780,508.354645 
	C221.665085,508.901306 222.415375,509.447998 223.888397,510.048309 
	C229.285263,513.849548 234.452881,514.958862 241.176559,512.062744 
	C248.006851,509.120758 252.075226,504.521912 253.096695,497.888153 
	C254.339951,489.814026 252.787811,482.236664 245.041061,477.087921 
	C240.003052,473.739471 234.868378,472.676605 228.318756,473.921600 
	C218.258865,475.655640 211.199570,488.454346 213.399399,496.488617 
	C214.653137,501.067596 215.038834,506.474915 221.134628,507.778778 
	C221.134628,507.778778 221.231171,507.779053 220.914780,508.354645 
z"/>
<path fill="#AECBF6" opacity="1.000000" stroke="none" 
	d="
M71.532394,0.999999 
	C72.627457,2.051045 73.002228,3.488311 73.923134,4.090810 
	C80.159760,8.171099 83.742508,13.834143 83.972702,21.257143 
	C84.212471,28.989023 83.907997,36.736111 84.005714,44.474476 
	C84.143738,55.404243 84.796989,66.340057 84.559021,77.258659 
	C84.298172,89.227440 78.840958,97.173798 67.560684,100.670494 
	C59.141911,103.280182 47.900646,99.694351 42.308182,89.097168 
	C40.655834,85.966125 39.814571,82.064743 39.750641,78.495804 
	C39.440693,61.193420 39.438015,43.883774 39.493866,26.577240 
	C39.530212,15.314408 43.554947,6.283289 54.778187,1.266814 
	C60.354931,1.000000 65.709862,1.000000 71.532394,0.999999 
z"/>
<path fill="#4385E8" opacity="1.000000" stroke="none" 
	d="
M409.562500,0.999994 
	C410.837769,1.773137 411.547821,2.940200 412.532684,3.259548 
	C424.672272,7.195806 431.474548,19.382429 427.860260,31.309755 
	C424.929321,40.981956 418.060730,47.556969 406.004028,47.587044 
	C396.819336,47.609955 389.650574,42.701107 385.164490,33.300873 
	C379.347412,21.111626 389.647522,5.120327 400.944489,3.615324 
	C401.951721,3.481137 402.801941,2.168247 403.362549,1.201392 
	C405.041656,1.000000 407.083344,1.000000 409.562500,0.999994 
z"/>
<path fill="#4285EC" opacity="1.000000" stroke="none" 
	d="
M411.934143,66.878036 
	C422.129272,70.950386 427.934601,77.465370 427.650269,89.037270 
	C427.213135,106.825821 427.725250,124.635803 427.654449,142.435974 
	C427.611633,153.196487 422.009155,161.228806 412.011444,163.517258 
	C397.010376,166.950989 384.416168,159.441269 383.465759,142.260117 
	C382.492645,124.668579 383.228699,106.981842 383.238525,89.336792 
	C383.247223,73.669746 396.199585,63.451550 411.934143,66.878036 
z"/>
<path fill="#659CEF" opacity="1.000000" stroke="none" 
	d="
M216.397125,347.513000 
	C211.199631,340.737640 211.255768,333.117401 211.298828,325.488098 
	C211.382523,310.662323 211.265228,295.833130 211.550491,281.011475 
	C211.846466,265.632812 229.324875,254.567352 243.082199,261.443237 
	C252.029663,265.915161 256.664368,273.070892 256.626648,283.207947 
	C256.563995,300.035889 256.807129,316.867310 256.548859,333.691528 
	C256.272949,351.663177 237.688141,361.212738 223.501801,353.424194 
	C220.951538,352.024078 218.917572,349.683563 216.397125,347.513000 
z"/>
<path fill="#4285F0" opacity="1.000000" stroke="none" 
	d="
M326.114227,128.981583 
	C331.495087,128.303558 334.445740,132.527679 337.203644,135.609344 
	C341.020844,139.874710 342.862610,145.339340 342.762024,151.536804 
	C342.468109,169.641922 342.704742,187.755066 342.636353,205.864685 
	C342.600342,215.399170 336.471375,223.903625 326.868134,227.006409 
	C320.747833,226.629181 315.390625,226.275177 310.033447,225.921173 
	C310.033447,225.921158 309.565979,225.801010 309.237061,225.517746 
	C308.698914,225.016144 308.443268,224.913269 308.141174,224.925873 
	C308.141174,224.925873 308.063995,224.948120 308.058716,224.540894 
	C306.408997,223.063522 304.764618,221.993393 303.120209,220.923264 
	C303.120209,220.923264 303.037231,220.958694 303.049866,220.546448 
	C301.708221,215.912109 299.262604,211.710098 299.184387,207.464508 
	C298.801178,186.657471 299.048065,165.838806 299.196838,144.692047 
	C300.217590,141.901291 301.113800,139.442734 302.010010,136.984192 
	C302.010010,136.984192 302.012299,137.007980 302.248291,136.846497 
	C302.673584,136.142349 302.862946,135.599670 303.052307,135.056992 
	C303.052307,135.056992 303.002838,135.001038 303.276367,134.948792 
	C303.720703,134.617126 303.891479,134.337723 304.062256,134.058319 
	C304.165863,133.748306 304.346466,133.492706 305.160919,133.173462 
	C306.493225,132.386353 307.268707,131.717270 308.044159,131.048172 
	C308.044159,131.048172 308.000000,131.000000 308.367554,131.038879 
	C310.225769,130.201981 311.716400,129.326233 313.207062,128.450485 
	C313.588806,128.389038 313.970551,128.327606 314.987000,128.467560 
	C319.119202,128.773178 322.616730,128.877380 326.114227,128.981583 
z"/>
<path fill="#AECBF7" opacity="1.000000" stroke="none" 
	d="
M168.988922,238.000000 
	C169.097031,249.969925 169.169647,261.440338 169.327347,272.909607 
	C169.413376,279.166595 162.084259,287.739075 154.332840,290.224731 
	C140.775177,294.572327 125.730148,284.233032 125.681137,268.821503 
	C125.623512,250.698395 125.570679,232.574173 125.710770,214.451950 
	C125.795876,203.442474 134.407990,194.655869 145.991821,193.312012 
	C156.006729,192.150192 166.677521,199.665436 168.964859,209.689514 
	C169.387909,211.543472 168.991837,213.582092 168.990662,215.535492 
	C168.986298,222.856995 168.988922,230.178497 168.988922,238.000000 
z"/>
<path fill="#4385E8" opacity="1.000000" stroke="none" 
	d="
M397.664978,226.439606 
	C390.775848,223.069199 386.509399,218.040588 384.445526,210.973267 
	C382.213287,203.329330 385.755310,192.299347 392.307892,187.614059 
	C405.866272,177.919418 422.488464,183.469376 427.833710,198.583542 
	C431.934937,210.180130 424.317566,225.783493 410.633514,227.394653 
	C406.170929,227.920090 402.134521,228.277252 397.664978,226.439606 
z"/>
<path fill="#4385E8" opacity="1.000000" stroke="none" 
	d="
M330.774414,288.773499 
	C322.439911,293.107513 314.627991,292.291321 307.417450,287.347504 
	C300.482178,282.592438 296.248383,275.806091 297.389130,267.194244 
	C299.075928,254.460159 309.498596,243.967697 323.902649,246.683105 
	C336.643127,249.084900 344.960236,259.002350 342.367462,273.093201 
	C341.177521,279.560150 337.473022,285.360870 330.774414,288.773499 
z"/>
<path fill="#4385E8" opacity="1.000000" stroke="none" 
	d="
M303.924744,72.926392 
	C310.900604,64.750931 326.170044,65.019722 333.865570,70.714783 
	C341.736694,76.539833 345.075714,88.146111 341.178650,96.908630 
	C336.831451,106.683128 329.111511,111.905228 318.571381,111.228432 
	C309.694366,110.658424 302.914032,105.585335 299.117310,97.383377 
	C294.945343,88.370804 297.664215,80.410095 303.924744,72.926392 
z"/>
<path fill="#659CEE" opacity="1.000000" stroke="none" 
	d="
M255.456604,159.372742 
	C250.916153,168.927841 244.442520,174.973404 233.401321,175.097260 
	C226.120422,175.178925 215.385162,169.521729 212.819885,160.166321 
	C209.346573,147.499344 212.906174,138.711212 224.075012,132.711700 
	C231.049973,128.964996 242.380829,130.174255 248.356720,135.303101 
	C255.382385,141.332932 258.163727,150.588501 255.456604,159.372742 
z"/>
<path fill="#659CEE" opacity="1.000000" stroke="none" 
	d="
M237.281616,194.221436 
	C249.275848,196.576431 257.787506,207.482346 256.616028,218.795593 
	C255.533188,229.252792 244.049606,239.527161 233.469650,239.504700 
	C226.398422,239.489685 215.802322,231.995544 213.266769,225.344452 
	C208.579102,213.048080 212.675888,206.137833 218.433411,200.695679 
	C223.576660,195.834152 229.346451,192.205826 237.281616,194.221436 
z"/>
<path fill="#659CEE" opacity="1.000000" stroke="none" 
	d="
M211.404816,397.624512 
	C212.239136,384.643127 220.685822,376.367401 230.898636,375.265137 
	C242.536667,374.009064 251.135101,380.221527 255.113083,389.515228 
	C259.531738,399.838531 254.674438,412.397827 244.517410,416.876617 
	C229.925812,423.310760 214.458817,417.141022 211.772919,399.951935 
	C211.671509,399.302887 211.544998,398.657806 211.404816,397.624512 
z"/>
<path fill="#AECBF6" opacity="1.000000" stroke="none" 
	d="
M145.362305,174.966156 
	C136.044235,172.943359 129.078995,168.682922 126.436440,159.284058 
	C123.990417,150.584244 126.184471,140.485596 134.768372,134.449402 
	C142.436829,129.056946 153.889374,129.315033 160.890915,134.943405 
	C169.127014,141.564209 172.130692,150.900070 168.863419,159.723160 
	C165.114487,169.846985 157.308243,175.008698 145.362305,174.966156 
z"/>
<path fill="#AECBF6" opacity="1.000000" stroke="none" 
	d="
M73.917183,288.029602 
	C60.070961,297.607635 41.774303,289.081421 38.558968,271.653778 
	C36.959488,262.984344 46.509850,249.547729 55.898872,248.138809 
	C71.844490,245.746017 82.051033,253.959579 83.558945,268.955597 
	C84.339668,276.719788 80.827278,283.242279 73.917183,288.029602 
z"/>
<path fill="#AECBF6" opacity="1.000000" stroke="none" 
	d="
M51.759640,122.441437 
	C67.860077,117.006958 80.668823,124.515747 84.069717,141.286591 
	C85.481842,148.250183 79.134987,158.472534 71.335922,162.534134 
	C59.144714,168.883057 43.407654,161.029755 40.701130,150.393951 
	C37.661655,138.449768 40.056873,130.312180 51.759640,122.441437 
z"/>
<path fill="#AECBF6" opacity="1.000000" stroke="none" 
	d="
M169.274292,326.426910 
	C171.159470,339.863892 167.203705,348.314758 156.530487,352.889923 
	C144.979965,357.841125 132.208344,353.117096 126.991623,341.323059 
	C122.015015,330.071869 128.401337,316.258179 139.592941,311.552094 
	C151.099915,306.713379 165.679871,314.285400 169.274292,326.426910 
z"/>
<path fill="#AECBF6" opacity="1.000000" stroke="none" 
	d="
M150.734924,67.009903 
	C161.790939,67.701828 169.367065,77.715622 169.947998,86.594841 
	C170.696609,98.036827 163.715897,107.239655 153.533279,110.057976 
	C138.592957,114.193130 122.116608,102.341606 125.999680,83.049759 
	C128.129837,72.466675 136.662292,67.005486 150.734924,67.009903 
z"/>
<path fill="#AECBF6" opacity="1.000000" stroke="none" 
	d="
M41.427425,216.271713 
	C37.864399,209.041733 38.205505,202.387405 41.928051,195.625000 
	C46.023335,188.185455 55.998024,182.915939 63.891838,184.165161 
	C76.267906,186.123703 82.161980,194.764114 83.198578,202.707703 
	C84.857811,215.422745 77.215195,226.096436 65.047173,228.230408 
	C55.276176,229.944016 46.058067,225.368484 41.427425,216.271713 
z"/>
<path fill="#4385ED" opacity="1.000000" stroke="none" 
	d="
M402.911591,291.837067 
	C402.911591,291.837067 402.486176,291.922333 402.005371,291.898804 
	C401.353821,291.921417 401.183044,291.967560 401.012268,292.013733 
	C401.012268,292.013733 400.996460,292.007874 400.794678,291.718170 
	C398.420624,290.604095 396.248322,289.779694 394.076050,288.955292 
	C394.076050,288.955292 394.010529,288.995361 393.944519,288.724274 
	C393.681396,288.156464 393.405334,287.993195 393.050323,287.963379 
	C393.050323,287.963379 392.999817,287.998901 392.946716,287.731781 
	C392.613617,287.297577 392.333557,287.130493 392.053528,286.963409 
	C392.053528,286.963409 392.000671,287.000000 391.984131,286.665039 
	C391.346222,285.859375 390.724884,285.388641 390.103546,284.917908 
	C390.103546,284.917908 390.013275,284.973663 389.964355,284.697876 
	C389.725342,284.129700 389.456696,283.967316 389.109497,283.934906 
	C389.109497,283.934906 389.026031,283.977936 388.969910,283.699127 
	C388.720032,283.115997 388.442810,282.961670 388.082123,282.957336 
	C388.082123,282.957336 388.011566,283.000214 388.024475,282.670044 
	C387.687012,281.892059 387.336639,281.444305 386.986237,280.996521 
	C386.986237,280.996521 387.002014,280.999115 387.045807,280.597809 
	C385.574066,274.003296 383.227844,267.856934 387.028900,261.583252 
	C388.027313,259.935364 388.390076,257.902313 389.044769,256.046143 
	C389.044769,256.046143 389.000671,255.999634 389.271484,255.948532 
	C389.706238,255.613892 389.870117,255.330353 390.033997,255.046799 
	C390.033997,255.046799 389.999756,255.000793 390.262756,254.939453 
	C390.696716,254.600281 390.867706,254.322433 391.038727,254.044586 
	C391.038727,254.044586 391.000000,254.000000 391.261658,253.948761 
	C391.828949,253.711029 392.004333,253.440155 392.049377,253.084915 
	C392.049377,253.084915 392.015289,253.005188 392.297791,252.961548 
	C392.740570,252.630051 392.900818,252.342178 393.061066,252.054321 
	C393.493591,251.736923 393.926147,251.419525 395.047577,251.065216 
	C400.181183,250.069672 404.625885,249.111038 409.070587,248.152374 
	C409.070587,248.152374 409.500519,248.071854 409.988586,248.095215 
	C410.651733,248.074417 410.826782,248.030258 411.001831,247.986099 
	C411.001831,247.986099 411.000671,247.999329 411.191040,248.292084 
	C413.578552,249.400345 415.775757,250.215836 417.972931,251.031342 
	C417.972931,251.031342 418.000000,251.000000 418.027527,251.362183 
	C419.689606,252.832596 421.324219,253.940811 422.958801,255.049026 
	C422.958801,255.049026 422.999573,255.000000 423.056885,255.264221 
	C423.390717,255.699539 423.667236,255.870605 423.943787,256.041687 
	C423.943787,256.041687 424.000000,256.000305 424.005859,256.376190 
	C424.998108,258.177704 425.984528,259.603333 426.970947,261.028961 
	C426.970947,261.028961 426.999329,261.000671 426.945435,261.477722 
	C426.908997,267.620239 426.926453,273.285767 426.943909,278.951263 
	C426.943909,278.951263 426.999329,279.000671 426.635315,279.055054 
	C425.482452,280.730438 424.693604,282.351410 423.904724,283.972412 
	C423.820496,284.278534 423.650848,284.526123 422.873993,284.865601 
	C421.882935,285.653412 421.413696,286.290771 420.944458,286.928101 
	C420.944427,286.928101 420.992401,286.998383 420.714233,287.049133 
	C420.279572,287.385864 420.123108,287.671814 419.966644,287.957794 
	C419.966644,287.957794 420.000000,288.000000 419.688171,288.004364 
	C418.919464,288.357086 418.462646,288.705414 418.005798,289.053772 
	C418.005798,289.053772 418.005737,288.996613 417.638214,289.043274 
	C412.484314,290.005615 407.697968,290.921356 402.911591,291.837067 
z"/>
<path fill="#4881B3" opacity="1.000000" stroke="none" 
	d="
M299.072266,145.024261 
	C299.048065,165.838806 298.801178,186.657471 299.184387,207.464508 
	C299.262604,211.710098 301.708221,215.912109 303.070099,220.506134 
	C301.423431,217.868439 299.769196,214.858810 298.009644,211.164581 
	C297.699341,209.647095 297.494324,208.814194 297.289276,207.981308 
	C297.261902,207.543488 297.234558,207.105667 297.440857,206.017929 
	C297.546265,202.901184 297.417969,200.434372 297.289703,197.967545 
	C297.260040,189.295746 297.230408,180.623962 297.446136,171.128510 
	C297.777405,161.853088 297.863312,153.401337 297.949219,144.949585 
	C297.949219,144.949585 298.003479,144.936356 298.275146,144.975479 
	C298.721954,145.017838 298.897125,145.021057 299.072266,145.024261 
z"/>
<path fill="#4881B3" opacity="1.000000" stroke="none" 
	d="
M307.955444,351.051147 
	C298.847900,346.815247 292.603302,331.644836 301.777435,320.255402 
	C302.171448,320.159698 302.386597,320.361267 302.268311,320.730042 
	C301.951050,322.065002 301.891205,323.086670 301.531403,323.988678 
	C298.352692,331.957672 297.962280,339.524780 304.443146,346.231659 
	C305.805481,347.641510 307.045013,349.169983 308.244537,350.745422 
	C308.147919,350.847107 307.955444,351.051147 307.955444,351.051147 
z"/>
<path fill="#4881B3" opacity="1.000000" stroke="none" 
	d="
M302.063995,320.058777 
	C305.477570,312.858948 316.069244,308.052643 323.550446,310.266846 
	C326.366943,311.100403 329.099426,312.217804 331.928894,313.609100 
	C331.987610,314.012390 331.806213,314.200378 331.415588,314.119476 
	C328.195038,313.332001 325.401306,312.358490 322.528381,311.969452 
	C314.242188,310.847260 308.033478,314.995087 302.386597,320.361267 
	C302.386597,320.361267 302.171448,320.159698 302.063995,320.058777 
z"/>
<path fill="#4881B3" opacity="1.000000" stroke="none" 
	d="
M339.120544,320.886566 
	C344.876038,328.409576 344.357727,337.343872 337.220093,346.755737 
	C336.816803,346.818848 336.617981,346.621643 336.741333,346.284912 
	C341.397369,338.024506 341.274414,329.757812 338.790131,321.203339 
	C338.900146,321.097626 339.120544,320.886566 339.120544,320.886566 
z"/>
<path fill="#4881B3" opacity="1.000000" stroke="none" 
	d="
M336.916016,346.917633 
	C331.296051,355.493988 320.441101,357.177155 310.257324,352.239319 
	C310.109528,351.848816 310.260895,351.647003 310.660645,351.750061 
	C316.302521,351.925629 321.658569,352.682098 326.747223,351.833984 
	C330.230316,351.253479 333.340881,348.437988 336.617981,346.621643 
	C336.617981,346.621643 336.816803,346.818848 336.916016,346.917633 
z"/>
<path fill="#467DA4" opacity="1.000000" stroke="none" 
	d="
M388.713287,256.161743 
	C388.390076,257.902313 388.027313,259.935364 387.028900,261.583252 
	C383.227844,267.856934 385.574066,274.003296 387.043060,280.605347 
	C381.067078,273.916138 382.590210,263.655396 388.713287,256.161743 
z"/>
<path fill="#467DA4" opacity="1.000000" stroke="none" 
	d="
M427.272278,278.741211 
	C426.926453,273.285767 426.908997,267.620239 426.928925,261.488892 
	C430.272125,266.746979 429.191193,272.629852 427.272278,278.741211 
z"/>
<path fill="#4881B3" opacity="1.000000" stroke="none" 
	d="
M310.160217,226.251709 
	C315.390625,226.275177 320.747833,226.629181 326.573853,226.988312 
	C321.371643,230.352448 315.817352,228.953384 310.160217,226.251709 
z"/>
<path fill="#356C7B" opacity="1.000000" stroke="none" 
	d="
M297.607086,145.210205 
	C297.863312,153.401337 297.777405,161.853088 297.490540,170.663452 
	C297.281372,162.504974 297.273163,153.987900 297.607086,145.210205 
z"/>
<path fill="#467DA4" opacity="1.000000" stroke="none" 
	d="
M325.903503,128.641937 
	C322.616730,128.877380 319.119202,128.773178 315.276489,128.445267 
	C318.518463,128.248459 322.105621,128.275375 325.903503,128.641937 
z"/>
<path fill="#467DA4" opacity="1.000000" stroke="none" 
	d="
M408.669952,248.062622 
	C404.625885,249.111038 400.181183,250.069672 395.335388,251.024536 
	C398.654785,246.834915 403.454407,247.370483 408.669952,248.062622 
z"/>
<path fill="#4881B3" opacity="1.000000" stroke="none" 
	d="
M332.078125,313.918213 
	C334.460602,315.951660 336.752563,318.079315 339.082520,320.546753 
	C339.120544,320.886566 338.900146,321.097626 338.471466,321.086182 
	C335.963928,318.783295 333.885071,316.491852 331.806213,314.200378 
	C331.806213,314.200378 331.987610,314.012390 332.078125,313.918213 
z"/>
<path fill="#467DA4" opacity="1.000000" stroke="none" 
	d="
M403.344360,291.926514 
	C407.697968,290.921356 412.484314,290.005615 417.662720,289.058014 
	C414.115051,293.936279 408.663239,291.625488 403.344360,291.926514 
z"/>
<path fill="#4881B3" opacity="1.000000" stroke="none" 
	d="
M303.220886,221.241516 
	C304.764618,221.993393 306.408997,223.063522 308.067963,224.501816 
	C306.495544,223.766571 304.908539,222.663162 303.220886,221.241516 
z"/>
<path fill="#467DA4" opacity="1.000000" stroke="none" 
	d="
M299.196838,144.692047 
	C298.897125,145.021057 298.721954,145.017838 298.284485,145.001770 
	C299.144104,142.424515 300.265991,139.860077 301.698975,137.139923 
	C301.113800,139.442734 300.217590,141.901291 299.196838,144.692047 
z"/>
<path fill="#467DA4" opacity="1.000000" stroke="none" 
	d="
M422.845459,254.733475 
	C421.324219,253.940811 419.689606,252.832596 418.014099,251.378540 
	C419.559479,252.161102 421.145813,253.289505 422.845459,254.733475 
z"/>
<path fill="#467DA4" opacity="1.000000" stroke="none" 
	d="
M417.824951,250.711670 
	C415.775757,250.215836 413.578552,249.400345 411.196411,248.287415 
	C413.233276,248.790649 415.455109,249.591309 417.824951,250.711670 
z"/>
<path fill="#467DA4" opacity="1.000000" stroke="none" 
	d="
M394.236511,289.262573 
	C396.248322,289.779694 398.420624,290.604095 400.786438,291.716156 
	C398.785645,291.192505 396.591309,290.381195 394.236511,289.262573 
z"/>
<path fill="#467DA4" opacity="1.000000" stroke="none" 
	d="
M312.868652,128.336868 
	C311.716400,129.326233 310.225769,130.201981 308.388458,131.063690 
	C309.537964,130.107513 311.034119,129.165390 312.868652,128.336868 
z"/>
<path fill="#467DA4" opacity="1.000000" stroke="none" 
	d="
M424.222961,283.845764 
	C424.693604,282.351410 425.482452,280.730438 426.605927,279.031219 
	C426.140747,280.541718 425.340942,282.130402 424.222961,283.845764 
z"/>
<path fill="#356C7B" opacity="1.000000" stroke="none" 
	d="
M297.188110,198.406097 
	C297.417969,200.434372 297.546265,202.901184 297.482422,205.690887 
	C297.222412,203.624069 297.154449,201.234344 297.188110,198.406097 
z"/>
<path fill="#467DA4" opacity="1.000000" stroke="none" 
	d="
M426.926758,260.689972 
	C425.984528,259.603333 424.998108,258.177704 423.979980,256.399811 
	C424.926392,257.482025 425.904510,258.916504 426.926758,260.689972 
z"/>
<path fill="#467DA4" opacity="1.000000" stroke="none" 
	d="
M307.715668,131.068878 
	C307.268707,131.717270 306.493225,132.386353 305.371735,133.064377 
	C305.812897,132.412064 306.600037,131.750809 307.715668,131.068878 
z"/>
<path fill="#467DA4" opacity="1.000000" stroke="none" 
	d="
M421.233856,286.848999 
	C421.413696,286.290771 421.882935,285.653412 422.669739,284.968048 
	C422.499329,285.536652 422.011292,286.153259 421.233856,286.848999 
z"/>
<path fill="#467DA4" opacity="1.000000" stroke="none" 
	d="
M390.187134,285.202515 
	C390.724884,285.388641 391.346222,285.859375 392.005707,286.641296 
	C391.452789,286.464050 390.861755,285.975586 390.187134,285.202515 
z"/>
<path fill="#356C7B" opacity="1.000000" stroke="none" 
	d="
M297.188477,208.319122 
	C297.494324,208.814194 297.699341,209.647095 297.914429,210.813156 
	C297.645569,210.316528 297.366638,209.486725 297.188477,208.319122 
z"/>
<path fill="#4881B3" opacity="1.000000" stroke="none" 
	d="
M310.033173,351.949188 
	C309.395447,351.883942 308.834076,351.718323 308.114075,351.301910 
	C307.955444,351.051147 308.147919,350.847107 308.492767,350.851868 
	C309.312042,351.120087 309.786469,351.383545 310.260895,351.647003 
	C310.260895,351.647003 310.109528,351.848816 310.033173,351.949188 
z"/>
<path fill="#467DA4" opacity="1.000000" stroke="none" 
	d="
M418.317444,289.042358 
	C418.462646,288.705414 418.919464,288.357086 419.670166,287.984314 
	C419.519043,288.316925 419.074066,288.673950 418.317444,289.042358 
z"/>
<path fill="#467DA4" opacity="1.000000" stroke="none" 
	d="
M386.989471,281.306702 
	C387.336639,281.444305 387.687012,281.892059 388.044769,282.634094 
	C387.698975,282.491211 387.345825,282.054047 386.989471,281.306702 
z"/>
<path fill="#467DA4" opacity="1.000000" stroke="none" 
	d="
M302.759521,135.160614 
	C302.862946,135.599670 302.673584,136.142349 302.236969,136.850464 
	C302.148712,136.432022 302.307739,135.848129 302.759521,135.160614 
z"/>
<path fill="#467DA4" opacity="1.000000" stroke="none" 
	d="
M401.108307,292.178162 
	C401.183044,291.967560 401.353821,291.921417 401.788727,291.910126 
	C401.770020,292.077515 401.487183,292.210022 401.108307,292.178162 
z"/>
<path fill="#467DA4" opacity="1.000000" stroke="none" 
	d="
M303.804749,134.109482 
	C303.891479,134.337723 303.720703,134.617126 303.308136,134.968475 
	C303.226654,134.747162 303.386932,134.453903 303.804749,134.109482 
z"/>
<path fill="#4881B3" opacity="1.000000" stroke="none" 
	d="
M308.200928,225.159210 
	C308.443268,224.913269 308.698914,225.016144 309.017517,225.417633 
	C309.126862,225.600769 308.649719,225.679565 308.649719,225.679565 
	C308.649719,225.679565 308.260651,225.392548 308.200928,225.159210 
z"/>
<path fill="#467DA4" opacity="1.000000" stroke="none" 
	d="
M410.905701,247.809662 
	C410.826782,248.030258 410.651733,248.074417 410.207031,248.083817 
	C410.228119,247.910446 410.518829,247.771851 410.905701,247.809662 
z"/>
<path fill="#467DA4" opacity="1.000000" stroke="none" 
	d="
M390.782471,254.098297 
	C390.867706,254.322433 390.696716,254.600281 390.286255,254.955658 
	C390.206604,254.739441 390.366425,254.445724 390.782471,254.098297 
z"/>
<path fill="#467DA4" opacity="1.000000" stroke="none" 
	d="
M393.103027,288.217285 
	C393.405334,287.993195 393.681396,288.156464 393.956635,288.687836 
	C393.741791,288.772064 393.448761,288.621643 393.103027,288.217285 
z"/>
<path fill="#467DA4" opacity="1.000000" stroke="none" 
	d="
M420.209503,287.884979 
	C420.123108,287.671814 420.279572,287.385864 420.677673,287.027313 
	C420.763641,287.240570 420.608002,287.526367 420.209503,287.884979 
z"/>
<path fill="#467DA4" opacity="1.000000" stroke="none" 
	d="
M392.111908,287.214539 
	C392.333557,287.130493 392.613617,287.297577 392.965057,287.706787 
	C392.747742,287.787811 392.459015,287.626740 392.111908,287.214539 
z"/>
<path fill="#467DA4" opacity="1.000000" stroke="none" 
	d="
M389.171967,284.174744 
	C389.456696,283.967316 389.725342,284.129700 389.991333,284.652191 
	C389.703278,284.880157 389.425659,284.724243 389.171967,284.174744 
z"/>
<path fill="#467DA4" opacity="1.000000" stroke="none" 
	d="
M388.146057,283.199707 
	C388.442810,282.961670 388.720032,283.115997 388.987671,283.655670 
	C388.777740,283.741364 388.493866,283.591705 388.146057,283.199707 
z"/>
<path fill="#467DA4" opacity="1.000000" stroke="none" 
	d="
M392.816528,252.126251 
	C392.900818,252.342178 392.740570,252.630051 392.334259,252.985031 
	C392.249481,252.767502 392.410736,252.482849 392.816528,252.126251 
z"/>
<path fill="#467DA4" opacity="1.000000" stroke="none" 
	d="
M391.792816,253.127014 
	C392.004333,253.440155 391.828949,253.711029 391.284241,253.967926 
	C391.208862,253.748581 391.372559,253.458847 391.792816,253.127014 
z"/>
<path fill="#467DA4" opacity="1.000000" stroke="none" 
	d="
M423.892487,255.785507 
	C423.667236,255.870605 423.390717,255.699539 423.037903,255.289352 
	C423.254852,255.209946 423.548004,255.369629 423.892487,255.785507 
z"/>
<path fill="#467DA4" opacity="1.000000" stroke="none" 
	d="
M389.780945,255.104080 
	C389.870117,255.330353 389.706238,255.613892 389.297943,255.966980 
	C389.211670,255.744812 389.369812,255.453079 389.780945,255.104080 
z"/>
<path fill="#010202" opacity="1.000000" stroke="none" 
	d="
M229.097015,473.995850 
	C234.868378,472.676605 240.003052,473.739471 245.041061,477.087921 
	C252.787811,482.236664 254.339951,489.814026 253.096695,497.888153 
	C252.075226,504.521912 248.006851,509.120758 241.176559,512.062744 
	C234.452881,514.958862 229.285263,513.849548 223.454163,509.681183 
	C222.423691,508.802399 221.827423,508.290710 221.231171,507.779053 
	C221.231171,507.779053 221.134628,507.778778 221.092285,507.475647 
	C216.861328,500.706299 214.141098,493.507904 217.876770,486.407471 
	C220.392380,481.626038 225.273911,478.089355 229.097015,473.995850 
z"/>
<path fill="#A1CBF2" opacity="1.000000" stroke="none" 
	d="
M228.707886,473.958740 
	C225.273911,478.089355 220.392380,481.626038 217.876770,486.407471 
	C214.141098,493.507904 216.861328,500.706299 221.087616,507.523682 
	C215.038834,506.474915 214.653137,501.067596 213.399399,496.488617 
	C211.199570,488.454346 218.258865,475.655640 228.707886,473.958740 
z"/>
<path fill="#A1CBF2" opacity="1.000000" stroke="none" 
	d="
M221.072968,508.066833 
	C221.827423,508.290710 222.423691,508.802399 223.092804,509.654358 
	C222.415375,509.447998 221.665085,508.901306 221.072968,508.066833 
z"/>
<path fill="#4286F4" opacity="1.000000" stroke="none" 
	d="
M310.660645,351.750061 
	C309.786469,351.383545 309.312042,351.120087 308.589386,350.750183 
	C307.045013,349.169983 305.805481,347.641510 304.443146,346.231659 
	C297.962280,339.524780 298.352692,331.957672 301.531403,323.988678 
	C301.891205,323.086670 301.951050,322.065002 302.268311,320.730042 
	C308.033478,314.995087 314.242188,310.847260 322.528381,311.969452 
	C325.401306,312.358490 328.195038,313.332001 331.415588,314.119476 
	C333.885071,316.491852 335.963928,318.783295 338.361450,321.191895 
	C341.274414,329.757812 341.397369,338.024506 336.741333,346.284912 
	C333.340881,348.437988 330.230316,351.253479 326.747223,351.833984 
	C321.658569,352.682098 316.302521,351.925629 310.660645,351.750061 
z"/>
</svg>